Naakt over de Schutting (1973)       

Nederland
Misdaad / Thriller
96 minuten

geregisseerd door Frans Weisz
met Rijk de Gooyer, Sylvia Kristel en Jon Bluming

Rick Lemming (Rijk de Gooyer) woont in het hart van Amsterdam, waar hij duiven houdt en een kamer heeft verhuurd aan een onderwijzeres, Penny. Zijn beste vriend is Ed Swaan, karatekampioen van Nederland en tot over zijn oren verliefd op het zangeresje Lilly (Sylvia Kristel). Via Lilly komt Ed in contact met een televisieregisseur die Rick en Penny overhaalt in een 'kunstfilm' op te treden. Penny vertrouwt het niet helemaal en Rick gaat op onderzoek uit. Hij gluurt naar binnen en ziet een schimmig erotisch filmgedoe dat uitloopt op een fikse knokpartij. Ed en Lilly ontsnappen naakt over de schutting. Rick en Ed gaan de volgende morgen terug en vinden de studiobaas vermoord. Nu zijn ze niet meer te houden. Op zoek naar de moordenaar dringen ze door in de wereld van televisieglamour, krantensensatie en jetset.


Cast:
Rijk de GooyerJennifer WillemsJon BlumingAdèle BloemendaalSylvia KristelTon LensinkJerome ReehuisKo van DijkLo SysesHans SysesJerry BrouerFrans HalsemaManiuschka CahnRinus FerdinandusseCarola Gijsbers van WijkLex GoudsmitLoek HollanderKarel KorsmanEd LautenslagerCon MeyerWim PonciaHarm PostJaap StobbeOlga Zuiderhoek



Spotinformatie 
Categorie : Beeld 
Formaat : DVD5 
Bron : Retail
Audio : Dutch 
Ondertitels : Geen

Video
ID                               : 224 (0xE0)
Format                           : MPEG Video
Format version                   : Version 2
Format profile                   : Main@Main
Format settings, Matrix          : Default
Duration                         : 24mn 14s
Bit rate mode                    : Constant
Bit rate                         : 5 478 Kbps
Nominal bit rate                 : 5 600 Kbps
Width                            : 720 pixels
Height                           : 576 pixels
Display aspect ratio             : 4/3
Frame rate                       : 25.000 fps
Standard                         : PAL
Colorimetry                      : 4:2:0
Scan type                        : Interlaced
Scan order                       : Top Field First
Bits/(Pixel*Frame)               : 0.528
Stream size                      : 950 MiB (93%)

Audio
ID                               : 128 (0x80)
Format                           : AC-3
Format/Info                      : Audio Coding 3
Duration                         : 24mn 14s
Bit rate mode                    : Constant
Bit rate                         : 192 Kbps
Channel(s)                       : 2 channels
Channel positions                : L R
Sampling rate                    : 48.0 KHz
Video delay                      : 120ms
Stream size                      : 33.3 MiB (3%)
 
Genre : Misdaad
Thriller
 
Weblink :  http://www.moviemeter.nl/film/1656 
Weblink :  http://www.imdb.com/title/tt0070430

 
*****************************************************
 
Brought to you by
Pioen
2Lions Team

meer zien??
Kom dan eens kijken op ons forum
    

2Lions-Team and Film-Terminal for all your Dutch MOVIES and more

*****************************************************

DON T HIT AND RUN Niet gelijk afhaken als de film binnen is blijf seeden.

Don`t quit after you finished the download, but keep seeding.

*****************************************************

There are fake torrents from uploaders who use our team name.
Those are not ours, or members from our team.
We 2Lions-Team and Film-Terminal are not responsible for the fake posts on our name

Wij 2Lions-Team en Film-Terminal zijn niet verantwoordelijk voor die zieke FAKE posten die op 

onze naam worden gedaan

Please check our site !!!

to the fakers , get a life !!!

*****************************************************	
 
 
 
